# xmcd
#
# Track frame offsets:
#	150
#	20882
#	27870
#	38082
#	43802
#	53710
#	73452
#	77515
#	88172
#	105312
#	116607
#	122790
#	135667
#	155745
#	158232
#
# Disc length: 2444 seconds
#
# Revision: 1
# Processed by: cddbd v1.5.1PL0 Copyright (c) Steve Scherf et al.
# Submitted via: CDex 1.50Beta5
#
DISCID=cc098a0f
DTITLE=松浦有希 - メルティランサー -The Animation- オリジナルサウンドトラックVol.1
DYEAR=1999
DGENRE=
TTITLE0=松浦有希/Flying High
TTITLE1=ビデオ・サントラ/METEORIC IMPACT
TTITLE2=ビデオ・サントラ/DEFIANT
TTITLE3=ビデオ・サントラ/AUTHORITIES,THE
TTITLE4=ビデオ・サントラ/PARTY,THE
TTITLE5=ビデオ・サントラ/SCRAMBLE
TTITLE6=ビデオ・サントラ/WILDLIFE
TTITLE7=ビデオ・サントラ/GENERATION GAP
TTITLE8=ビデオ・サントラ/INTRUDER,THE
TTITLE9=ビデオ・サントラ/RED ALERT
TTITLE10=ビデオ・サントラ/ESCAPE
TTITLE11=ビデオ・サントラ/METEORIC IMPACT
TTITLE12=ビデオ・サントラ/OLD MAN’S BLUES,THE
TTITLE13=ビデオ・サントラ/TO BE CONTINUED
TTITLE14=aya/夢見たわたしのそばへ
EXTD=
EXTT0=
EXTT1=
EXTT2=
EXTT3=
EXTT4=
EXTT5=
EXTT6=
EXTT7=
EXTT8=
EXTT9=
EXTT10=
EXTT11=
EXTT12=
EXTT13=
EXTT14=
PLAYORDER=
